<svg id="Layer_1" height="512" viewBox="0 0 50 50" width="512" xmlns="http://www.w3.org/2000/svg"><g style="fill:none;stroke:#000;stroke-linecap:round;stroke-linejoin:round;stroke-miterlimit:10;stroke-width:1.5"><ellipse cx="25" cy="7.9" rx="15.3" ry="3.4"/><ellipse cx="25" cy="25.1" rx="11.3" ry="2.5"/><path d="m31.6 41.6c.5 0 .9-.3 1-.8l7.7-32.8"/><path d="m9.7 7.9 7.6 32.8c.1.5.5.8 1 .8"/><g><path d="m15 7.6v-5.8"/><path d="m20 7.6v-5.8"/><path d="m25 7.6v-5.8"/><path d="m30 7.6v-5.8"/><path d="m35 7.6v-5.8"/></g><g><path d="m20 24.8v-8.4"/><path d="m25 24.8v-8.4"/><path d="m30 24.8v-8.4"/></g><g><path d="m25 47.7v-16.1"/><path d="m27.1 46.1-2.1 2.2-2.1-2.2"/></g></g></svg>