<svg id="Layer_1" height="512" viewBox="0 0 24 24" width="512" xmlns="http://www.w3.org/2000/svg" data-name="Layer 1"><path d="m4.84 9.14a4.3 4.3 0 1 1 4.3-4.3h-1.91a2.39 2.39 0 1 0 -2.39 2.39z"/><path d="m4.84 23.45a4.3 4.3 0 0 1 0-8.59v1.91a2.39 2.39 0 1 0 2.39 2.39h1.91a4.3 4.3 0 0 1 -4.3 4.29z"/><path d="m19.16 9.14v-1.91a2.39 2.39 0 1 0 -2.39-2.39h-1.91a4.3 4.3 0 1 1 4.3 4.3z"/><path d="m19.16 23.45a4.3 4.3 0 0 1 -4.3-4.29h1.91a2.39 2.39 0 1 0 2.39-2.39v-1.91a4.3 4.3 0 0 1 0 8.59z"/><path d="m16.3 13.88h1.91v6.75h-1.91z" transform="matrix(.707 -.707 .707 .707 -7.15 17.25)"/><path d="m5.8 3.38h1.91v6.75h-1.91z" transform="matrix(.707 -.707 .707 .707 -2.8 6.75)"/><path d="m3.38 16.3h6.75v1.91h-6.75z" transform="matrix(.707 -.707 .707 .707 -10.22 9.83)"/><path d="m13.88 5.8h6.75v1.91h-6.75z" transform="matrix(.707 -.707 .707 .707 .28 14.17)"/><path d="m12 18.68a3.82 3.82 0 0 1 -3.82-3.82v-5.72a3.82 3.82 0 0 1 7.64 0v5.72a3.82 3.82 0 0 1 -3.82 3.82zm0-11.45a1.91 1.91 0 0 0 -1.91 1.91v5.72a1.91 1.91 0 0 0 3.82 0v-5.72a1.91 1.91 0 0 0 -1.91-1.91z"/></svg>