<svg id="Capa_1" enable-background="new 0 0 512 512" height="512" viewBox="0 0 512 512" width="512" xmlns="http://www.w3.org/2000/svg"><g><path d="m241 316h30v30h-30z"/><path d="m256 436c-27.994 0-54.348-10.936-74.206-30.794l-21.213 21.213c25.524 25.524 59.411 39.581 95.419 39.581 36.009 0 69.896-14.057 95.419-39.581l-21.213-21.213c-19.857 19.858-46.211 30.794-74.206 30.794z"/><path d="m202.967 384.033c14.166 14.166 33 21.967 53.033 21.967s38.867-7.801 53.033-21.967l-21.213-21.214c-8.5 8.5-19.8 13.181-31.82 13.181s-23.32-4.681-31.82-13.181z"/><path d="m512 76v-30h-150v30h60v30h-30v30h-16.578c-13.957 0-27.369-6.769-35.876-18.107-19.978-26.623-50.429-41.893-83.546-41.893s-63.568 15.27-83.546 41.893c-8.507 11.338-21.919 18.107-35.876 18.107h-16.578v-30h-30v-30h60v-30h-150v30h60v30h-30v105c0 24.813 20.187 45 45 45 19.555 0 36.228-12.542 42.42-30h19.158c10.857 0 21.373 4.111 29.518 11.267l-35.22 70.441c-2.558 5.115-7.699 8.292-13.417 8.292h-26.459v30h26.459c17.154 0 32.577-9.531 40.249-24.875l30.208-60.416c18.758 16.262 42.631 25.291 68.084 25.291s49.326-9.029 68.084-25.291l30.208 60.416c7.672 15.344 23.095 24.875 40.249 24.875h26.459v-30h-26.459c-5.718 0-10.859-3.177-13.417-8.292l-35.22-70.441c8.145-7.156 18.661-11.267 29.518-11.267h19.158c6.192 17.458 22.865 30 42.42 30 24.813 0 45-20.187 45-45v-105h-30v-30zm-422 135c0 8.271-6.729 15-15 15s-15-6.729-15-15v-75h30zm225.55 15.101c-14.258 19.001-35.963 29.899-59.55 29.899s-45.292-10.898-59.55-29.899c-14.142-18.848-36.524-30.101-59.872-30.101h-16.578v-30h16.578c23.348 0 45.729-11.253 59.872-30.101 14.258-19.001 35.963-29.899 59.55-29.899s45.292 10.898 59.55 29.899c14.142 18.848 36.524 30.101 59.872 30.101h16.578v30h-16.578c-23.348 0-45.73 11.253-59.872 30.101zm136.45-15.101c0 8.271-6.729 15-15 15s-15-6.729-15-15v-75h30z"/><path d="m256 136c-24.813 0-45 20.187-45 45s20.187 45 45 45 45-20.187 45-45-20.187-45-45-45zm0 60c-8.271 0-15-6.729-15-15s6.729-15 15-15 15 6.729 15 15-6.729 15-15 15z"/></g></svg>