<svg id="Capa_1" enable-background="new 0 0 512 512" height="512" viewBox="0 0 512 512" width="512" xmlns="http://www.w3.org/2000/svg"><g><path d="m421.159 330.318c-13.328 0-25.994 2.886-37.407 8.064l-40.69-37.684v-89.397l40.69-37.684c11.414 5.178 24.08 8.064 37.407 8.064 50.09 0 90.841-40.751 90.841-90.841s-40.751-90.84-90.841-90.84-90.841 40.751-90.841 90.841c0 6.71.738 13.25 2.125 19.549l-55.778 30.009h-41.33l-55.778-30.009c1.387-6.299 2.125-12.839 2.125-19.549 0-50.09-40.751-90.841-90.841-90.841s-90.841 40.751-90.841 90.841 40.751 90.841 90.841 90.841c13.328 0 25.994-2.886 37.407-8.064l40.69 37.684v89.397l-40.69 37.684c-11.414-5.178-24.08-8.064-37.407-8.064-50.09-.001-90.841 40.75-90.841 90.84s40.751 90.841 90.841 90.841 90.841-40.751 90.841-90.841c0-6.71-.738-13.25-2.125-19.549l55.778-30.009h41.33l55.778 30.009c-1.387 6.299-2.125 12.839-2.125 19.549 0 50.09 40.751 90.841 90.841 90.841s90.841-40.751 90.841-90.841-40.751-90.841-90.841-90.841zm-203.379 11.284-18.842-20.89v-129.424l18.842-20.89h76.439l18.842 20.89v129.424l-18.842 20.89zm203.379-311.602c33.548 0 60.841 27.293 60.841 60.841s-27.293 60.841-60.841 60.841-60.841-27.293-60.841-60.841 27.293-60.841 60.841-60.841zm-62.89 126.328-19.8 18.337-20.314-22.521 25.616-13.781c4.062 6.59 8.942 12.627 14.498 17.965zm-328.269-65.487c0-33.548 27.293-60.841 60.841-60.841s60.841 27.293 60.841 60.841-27.293 60.841-60.841 60.841-60.841-27.293-60.841-60.841zm138.229 47.521 25.616 13.781-20.314 22.521-19.8-18.337c5.556-5.337 10.435-11.374 14.498-17.965zm-77.388 343.638c-33.548 0-60.841-27.293-60.841-60.841s27.293-60.841 60.841-60.841 60.841 27.293 60.841 60.841-27.293 60.841-60.841 60.841zm62.89-126.328 19.8-18.337 20.314 22.521-25.616 13.781c-4.063-6.59-8.942-12.627-14.498-17.965zm164.424 4.185 20.314-22.521 19.8 18.337c-5.556 5.338-10.435 11.374-14.498 17.966zm103.004 122.143c-33.548 0-60.841-27.293-60.841-60.841s27.293-60.841 60.841-60.841 60.841 27.293 60.841 60.841-27.293 60.841-60.841 60.841z"/><path d="m75.841 75.841h30v30h-30z"/><path d="m406.159 75.841h30v30h-30z"/><path d="m75.841 406.159h30v30h-30z"/><path d="m406.159 406.159h30v30h-30z"/><path d="m241 211.843h30v88.314h-30z"/></g></svg>