<svg id="Lines" viewBox="0 0 60 60" xmlns="http://www.w3.org/2000/svg"><path d="m34 34h1a12 12 0 0 1 12 12v10a3 3 0 0 1 -3 3h-28a3 3 0 0 1 -3-3v-10a12 12 0 0 1 12-12z" fill="#86a56d"/><path d="m26 29.06v4.94a4 4 0 0 0 4 4 4 4 0 0 0 4-4v-4.94z" fill="#d7b19c"/><path d="m23 26.65a8.988 8.988 0 0 0 14 0l1-10.65h-16z" fill="#e7c3ab"/><path d="m27 16a4 4 0 0 0 -4 4v6.69a.932.932 0 0 1 -1.35.83c-1.76-.88-4.65-3.28-4.65-9.52v-1.79l.59-6.07a12.995 12.995 0 0 1 24.82 0l.59 6.07v1.79c0 6.24-2.89 8.64-4.65 9.52a.932.932 0 0 1 -1.35-.83v-6.69a4 4 0 0 0 -4-4z" fill="#c4dadc"/><path d="m30 17a2.565 2.565 0 0 1 2.352 1.408 5.334 5.334 0 0 0 4.648 2.582 4.3 4.3 0 0 0 3.421-1.69l3.115-3.739a2 2 0 0 0 .464-1.285v-2.121a1.978 1.978 0 0 0 -1.091-1.782c-1.783-.879-5.852-2.373-12.909-2.373s-11.126 1.494-12.909 2.373a1.978 1.978 0 0 0 -1.091 1.782v2.121a2 2 0 0 0 .464 1.28l3.115 3.744a4.3 4.3 0 0 0 3.421 1.69 5.334 5.334 0 0 0 4.648-2.582 2.565 2.565 0 0 1 2.352-1.408z" fill="#726a6a"/><path d="m22.07 53h6.93v-4h-6.143z" fill="#566844"/><path d="m20 45a117.945 117.945 0 0 1 -2 14h4a117.945 117.945 0 0 0 2-14z" fill="#6a8255"/><path d="m24 41h-4a21.207 21.207 0 0 0 -1.19-5.29 11.847 11.847 0 0 1 3.65-1.44 25.994 25.994 0 0 1 1.54 6.73z" fill="#6a8255"/><rect fill="#b2c68a" height="4" rx="1" width="6" x="19" y="41"/><path d="m37.93 53h-6.93v-4h6.143z" fill="#566844"/><path d="m40 45a117.945 117.945 0 0 0 2 14h-4a117.945 117.945 0 0 1 -2-14z" fill="#6a8255"/><path d="m36 41h4a21.207 21.207 0 0 1 1.19-5.29 11.847 11.847 0 0 0 -3.65-1.44 25.994 25.994 0 0 0 -1.54 6.73z" fill="#6a8255"/><rect fill="#b2c68a" height="4" rx="1" transform="matrix(-1 0 0 -1 76 86)" width="6" x="35" y="41"/><rect fill="#b2c68a" height="6" rx="1" width="4" x="28" y="48"/><g fill="#373737"><path d="m35 33v-3.354a9.968 9.968 0 0 0 1.844-1.374c.026.018.045.041.072.058a1.922 1.922 0 0 0 1.881.084c1.943-.971 5.203-3.614 5.203-10.414v-1.438l.3-.365a3 3 0 0 0 .7-1.921v-2.121a2.959 2.959 0 0 0 -1.648-2.678l-.139-.066a13.981 13.981 0 0 0 -26.426 0c-.045.022-.1.044-.139.066a2.962 2.962 0 0 0 -1.648 2.678v2.121a3.005 3.005 0 0 0 .7 1.921l.3.366v1.437c0 6.8 3.26 9.443 5.2 10.413a1.92 1.92 0 0 0 1.882-.083c.027-.017.046-.04.072-.058a9.968 9.968 0 0 0 1.846 1.374v3.354a13.01 13.01 0 0 0 -9.75 4.4 1 1 0 0 0 1.5 1.325 10.991 10.991 0 0 1 1.523-1.414 19.409 19.409 0 0 1 .634 3.018 2 2 0 0 0 -.907 1.671v2a2 2 0 0 0 .95 1.7 117.488 117.488 0 0 1 -1.771 12.3h-1.179a2 2 0 0 1 -2-2v-10a10.969 10.969 0 0 1 .625-3.667 1 1 0 0 0 -1.885-.666 12.959 12.959 0 0 0 -.74 4.333v10a4 4 0 0 0 4 4h28a4 4 0 0 0 4-4v-10a13.015 13.015 0 0 0 -13-13zm-15 11v-2h4v2zm7 8h-2.761c.1-.652.189-1.323.276-2h2.485zm-3.073 2h3.351a1.993 1.993 0 0 0 1.722 1h2a1.993 1.993 0 0 0 1.722-1h3.351c.27 1.656.53 3.063.71 4h-13.566c.183-.937.44-2.344.71-4zm5.073-1v-4h2v4zm4-3h2.485c.087.677.18 1.348.276 2h-2.761zm7-8v2h-4v-2zm-2.929 4h2a116.579 116.579 0 0 0 1.717 12h-1.967a119.467 119.467 0 0 1 -1.75-12zm2.029-6h-1.99a24.742 24.742 0 0 1 1.068-4.526 10.841 10.841 0 0 1 1.79.727 21.994 21.994 0 0 0 -.868 3.799zm-16.1-20.01a3.284 3.284 0 0 1 -2.652-1.336l-3.117-3.738a1 1 0 0 1 -.231-.64v-2.121a.985.985 0 0 1 .533-.885c1.72-.848 5.627-2.27 12.467-2.27s10.747 1.422 12.467 2.271a.983.983 0 0 1 .533.884v2.121a1 1 0 0 1 -.232.64l-3.116 3.738a3.284 3.284 0 0 1 -2.652 1.336 4.337 4.337 0 0 1 -3.776-2.071 3.667 3.667 0 0 0 -6.447 0 4.338 4.338 0 0 1 -3.777 2.071zm15 6.585v-4.683a5.391 5.391 0 0 0 3.189-1.956l.783-.94c-.272 4.869-2.528 6.823-3.972 7.579zm-8-24.575a11.91 11.91 0 0 1 10.617 6.411 35.775 35.775 0 0 0 -10.617-1.411 35.815 35.815 0 0 0 -10.617 1.41 11.911 11.911 0 0 1 10.617-6.41zm-11.972 17 .783.94a5.391 5.391 0 0 0 3.189 1.952v4.683c-1.444-.756-3.7-2.71-3.972-7.575zm5.972 7.268v-4.362a6.279 6.279 0 0 0 4.521-3.006 1.668 1.668 0 0 1 2.959 0 6.279 6.279 0 0 0 4.52 3.006v4.362a7.955 7.955 0 0 1 -12 0zm6 4.732a9.974 9.974 0 0 0 3-.471v3.471a3 3 0 0 1 -6 0v-3.471a9.974 9.974 0 0 0 3 .471zm-4.9 4a5 5 0 0 0 9.8 0h.1a11 11 0 0 1 1.21.07 26.144 26.144 0 0 0 -1.135 5.168 1.993 1.993 0 0 0 -1.075 1.762v2a1.993 1.993 0 0 0 1.049 1.748c.052.736.12 1.49.2 2.252h-2.527a1.993 1.993 0 0 0 -1.722-1h-2a1.993 1.993 0 0 0 -1.722 1h-2.528c.081-.762.149-1.516.2-2.252a1.993 1.993 0 0 0 1.05-1.748v-2a1.993 1.993 0 0 0 -1.075-1.762 26.117 26.117 0 0 0 -1.136-5.169 10.842 10.842 0 0 1 1.211-.069zm-3.281.482a24.806 24.806 0 0 1 1.066 4.518h-1.985a21.9 21.9 0 0 0 -.867-3.8 10.991 10.991 0 0 1 1.787-.718zm-.885 10.518h1.995a119.558 119.558 0 0 1 -1.75 12h-1.962a116.579 116.579 0 0 0 1.717-12zm25.066 10a2 2 0 0 1 -2 2h-1.179a117.405 117.405 0 0 1 -1.771-12.3 2 2 0 0 0 .95-1.7v-2a2 2 0 0 0 -.907-1.671 19.384 19.384 0 0 1 .633-3.014 10.977 10.977 0 0 1 4.274 8.685z"/><path d="m23.447 12.9a1 1 0 1 0 -.894-1.79l-2 1a1 1 0 0 0 .894 1.79z"/><path d="m24.553 14.105-3 1.5a1 1 0 0 0 .894 1.79l3-1.5a1 1 0 1 0 -.894-1.79z"/></g></svg>